<?xml version="1.0" encoding="UTF-8" standalone="no"?>
<!-- Created with Inkscape (http://www.inkscape.org/) -->

<svg
   xmlns:dc="http://purl.org/dc/elements/1.1/"
   xmlns:cc="http://creativecommons.org/ns#"
   xmlns:rdf="http://www.w3.org/1999/02/22-rdf-syntax-ns#"
   xmlns:svg="http://www.w3.org/2000/svg"
   xmlns="http://www.w3.org/2000/svg"
   xmlns:sodipodi="http://sodipodi.sourceforge.net/DTD/sodipodi-0.dtd"
   xmlns:inkscape="http://www.inkscape.org/namespaces/inkscape"
   width="80"
   height="80"
   viewBox="0 0 21.166666 21.166667"
   version="1.1"
   id="svg4502"
   sodipodi:docname="angular.svg"
   inkscape:version="0.92.1 r15371">
  <defs
     id="defs4496" />
  <sodipodi:namedview
     id="base"
     pagecolor="#ffffff"
     bordercolor="#666666"
     borderopacity="1.0"
     inkscape:pageopacity="0.0"
     inkscape:pageshadow="2"
     inkscape:zoom="5.7935223"
     inkscape:cx="48.598893"
     inkscape:cy="36.334554"
     inkscape:document-units="mm"
     inkscape:current-layer="layer1"
     showgrid="false"
     units="px"
     inkscape:window-width="1440"
     inkscape:window-height="837"
     inkscape:window-x="-8"
     inkscape:window-y="-8"
     inkscape:window-maximized="1"
     showguides="false" />
  <metadata
     id="metadata4499">
    <rdf:RDF>
      <cc:Work
         rdf:about="">
        <dc:format>image/svg+xml</dc:format>
        <dc:type
           rdf:resource="http://purl.org/dc/dcmitype/StillImage" />
        <dc:title />
      </cc:Work>
    </rdf:RDF>
  </metadata>
  <g
     inkscape:label="Capa 1"
     inkscape:groupmode="layer"
     id="layer1"
     transform="translate(0,-275.83332)">
    <path
       style="fill:none;stroke:#000000;stroke-width:0;stroke-linecap:butt;stroke-linejoin:miter;stroke-miterlimit:4;stroke-dasharray:none;stroke-opacity:1"
       d="m 9.8622051,296.9358 7.2281139,-4.00183 1.364966,-10.98177 -8.5620577,-2.85402 z"
       id="path55"
       inkscape:connector-curvature="0" />
    <path
       style="fill:#000000;stroke:#000000;stroke-width:0;stroke-linecap:butt;stroke-linejoin:miter;stroke-miterlimit:4;stroke-dasharray:none;stroke-opacity:1"
       d="M 9.8622051,296.9358 3.004505,292.97651 1.6413888,281.98322 9.8932273,279.09818 Z"
       id="path57"
       inkscape:connector-curvature="0" />
    <path
       style="fill:none;stroke:#000000;stroke-width:0;stroke-linecap:butt;stroke-linejoin:miter;stroke-miterlimit:4;stroke-dasharray:none;stroke-opacity:1"
       d="m 2.5100033,282.75877 7.383224,-2.72993 v 0.77555 l -5.2427095,11.38505 1.9543826,-0.0931 0.9927024,-2.57481 h 2.2646023 v 6.45256 l -6.2354116,-3.47446 z"
       id="path59"
       inkscape:connector-curvature="0" />
    <path
       style="fill:none;stroke:#000000;stroke-width:0;stroke-linecap:butt;stroke-linejoin:miter;stroke-miterlimit:4;stroke-dasharray:none;stroke-opacity:1"
       d="m 9.8622051,284.62008 -1.5200757,3.28833 h 1.5821201 z"
       id="path61"
       inkscape:connector-curvature="0" />
    <path
       style="fill:#999999;stroke:#000000;stroke-width:0;stroke-linecap:butt;stroke-linejoin:miter;stroke-miterlimit:4;stroke-dasharray:none;stroke-opacity:1"
       d="m 9.8622051,289.52154 v -1.67517 H 8.2800857 l 1.5821194,-3.22629 0.031019,-3.81569 -5.2427095,11.38505 1.9543827,-0.0931 0.9927024,-2.57481 z"
       id="path63"
       inkscape:connector-curvature="0" />
    <path
       style="fill:#4d4d4d;stroke:#000000;stroke-width:0;stroke-linecap:butt;stroke-linejoin:miter;stroke-miterlimit:4;stroke-dasharray:none;stroke-opacity:1"
       d="m 9.8622051,284.62008 1.6441629,3.28833 -1.6441629,-0.0621 z"
       id="path65"
       inkscape:connector-curvature="0" />
    <path
       style="fill:#ffffff;stroke:#000000;stroke-width:0;stroke-linecap:butt;stroke-linejoin:miter;stroke-miterlimit:4;stroke-dasharray:none;stroke-opacity:1"
       d="m 9.8932273,280.80439 5.3667977,11.41607 h -1.89234 l -1.116789,-2.66788 -2.3886909,-0.031 0.062048,-1.61313 h 1.5821189 l -1.6441633,-3.28833 z"
       id="path67"
       inkscape:connector-curvature="0" />
    <path
       style="fill:#4d4d4d;stroke:#000000;stroke-width:0;stroke-linecap:butt;stroke-linejoin:miter;stroke-miterlimit:4;stroke-dasharray:none;stroke-opacity:1"
       d="m 9.893307,280.02884 7.52662,2.60584 -1.212967,9.896 -6.3447549,3.44342 v -6.45256 l 2.3948339,0.031 1.119662,2.66788 h 1.897207 L 9.893307,280.80438 Z"
       id="path71"
       inkscape:connector-curvature="0" />
    <path
       style="fill:#000000;stroke:#000000;stroke-width:0;stroke-linecap:butt;stroke-linejoin:miter;stroke-miterlimit:4;stroke-dasharray:none;stroke-opacity:1"
       d="m 9.8932275,280.02884 7.5073105,2.60584 -1.209855,9.896 -6.3284777,3.44342 v 0.9617 l 7.2281137,-4.00183 1.364966,-10.98177 -8.5620575,-2.85402 z"
       id="path69"
       inkscape:connector-curvature="0" />
    <path
       style="fill:#ffffff;stroke:#000000;stroke-width:0;stroke-linecap:butt;stroke-linejoin:miter;stroke-miterlimit:4;stroke-dasharray:none;stroke-opacity:1"
       d="m 15.290487,285.50764 0.0041,-0.58374 h -1.329668 c 0.482119,-0.48897 2.05845,-2.16818 0.470239,-2.77279 -0.79892,-0.16775 -1.505603,0.23895 -1.483684,1.04182 l 0.622255,0.006 c 0.08733,-0.29621 0.119221,-0.51298 0.451997,-0.56145 0.185494,-0.0136 0.353639,0.0838 0.409432,0.27565 0.1878,0.67388 -0.874752,1.3971 -1.418823,2.09987 v 0.49456 z"
       id="path5138"
       inkscape:connector-curvature="0"
       sodipodi:nodetypes="ccccccccccc" />
  </g>
</svg>
