<?xml version="1.0" encoding="UTF-8"?>
<!-- Created with Inkscape (http://www.inkscape.org/) -->
<svg width="80" height="80" version="1.1" viewBox="0 0 21.166667 21.166667" xmlns="http://www.w3.org/2000/svg" xmlns:cc="http://creativecommons.org/ns#" xmlns:dc="http://purl.org/dc/elements/1.1/" xmlns:rdf="http://www.w3.org/1999/02/22-rdf-syntax-ns#">
 <defs>
  <clipPath id="clipPath5070">
   <rect x="14.725" y="28.722" width="152.23" height="234.14" ry="7.8047" fill="#5fbcd3" stroke-width="3.0513"/>
  </clipPath>
  <filter id="filter5880" x="-.026853" y="-.021695" width="1.0537" height="1.0434" color-interpolation-filters="sRGB">
   <feGaussianBlur stdDeviation="0.18248636"/>
  </filter>
  <filter id="filter5988" x="-.0065124" y="-.0055382" width="1.013" height="1.0111" color-interpolation-filters="sRGB">
   <feGaussianBlur stdDeviation="0.62856305"/>
  </filter>
 </defs>
 <metadata>
  <rdf:RDF>
   <cc:Work rdf:about="">
    <dc:format>image/svg+xml</dc:format>
    <dc:type rdf:resource="http://purl.org/dc/dcmitype/StillImage"/>
    <dc:title/>
   </cc:Work>
  </rdf:RDF>
 </metadata>
 <rect x="2.6267" y=".77269" width="16.31" height="20.188" ry=".67292" fill="#5fbcd3" filter="url(#filter5880)" stroke-width=".29326"/>
 <path transform="matrix(.11051 0 0 .086219 .48624 -1.7037)" d="m126.87 59.168 157.81 136.15-136.24 136.24-95.405-99.694l69.314 4.2819 7.3261-10.459z" clip-path="url(#clipPath5070)" filter="url(#filter5988)" opacity=".304" stroke="#000" stroke-width=".26458px"/>
 <path d="m7.3736 2.9885c-0.7482 0-1.3505 0.60235-1.3505 1.3505v13.055c0 0.37411 0.15059 0.71175 0.3947 0.95585 0.24411 0.24411 0.58174 0.39471 0.95585 0.39471h6.3026c0.7482 0 1.3505-0.60236 1.3505-1.3505v-13.055c0-0.3741-0.15059-0.71173-0.3947-0.95585-0.24411-0.24411-0.58174-0.3947-0.95585-0.3947zm2.251 0.73858h1.8008c0.1247 0 0.22508 0.10033 0.22508 0.2251 0 0.12475-0.10038 0.2251-0.22508 0.2251h-1.8008c-0.1247 0-0.2251-0.10033-0.2251-0.2251 0-0.12475 0.10038-0.2251 0.2251-0.2251zm-2.6111 1.0059h7.0229v12.268h-7.0229zm3.5114 12.609c0.24864 0 0.45018 0.20156 0.45018 0.45018 0 0.24863-0.20156 0.45019-0.45018 0.45019-0.24864 0-0.45018-0.20156-0.45018-0.45019 0-0.24862 0.20156-0.45018 0.45018-0.45018z" fill="#fff" stroke-width=".02251"/>
</svg>
