<?xml version="1.0" encoding="UTF-8"?>
<!-- Created with Inkscape (http://www.inkscape.org/) -->
<svg width="80" height="80" version="1.1" viewBox="0 0 21.166666 21.166667" xmlns="http://www.w3.org/2000/svg" xmlns:cc="http://creativecommons.org/ns#" xmlns:dc="http://purl.org/dc/elements/1.1/" xmlns:rdf="http://www.w3.org/1999/02/22-rdf-syntax-ns#">
 <metadata>
  <rdf:RDF>
   <cc:Work rdf:about="">
    <dc:format>image/svg+xml</dc:format>
    <dc:type rdf:resource="http://purl.org/dc/dcmitype/StillImage"/>
    <dc:title/>
   </cc:Work>
  </rdf:RDF>
 </metadata>
 <g transform="translate(0 -275.83)">
  <g>
   <g stroke="#000" stroke-width=".1">
    <path d="m2.7758 291.93-1.0394 4.1814 4.1459-1.0276z"/>
    <path d="m6.402 294.59 10.855-10.855-2.256-2.256-10.3 10.3-0.44885-0.44885 10.276-10.276-0.44885-0.44885-10.831 10.831z"/>
    <path d="m17.765 283.24-3.1696-3.1696 1.2988-1.257s0.44198-0.25241 0.66803-0.31503c0.27846-0.0771 0.62656 0.0358 0.7936 0.1981l1.5368 1.495c0.40679 0.48733 0.47782 0.62253 0.47972 0.8227 0.0216 0.33292-0.18271 0.74713-0.31268 0.93125z"/>
   </g>
   <path d="m7.4227 286.25 2.1265-2.1867-3.8719-5.537s-0.49243-0.48236-0.86986-0.67744c-0.21773-0.11253-0.22052-0.11063-0.22052-0.11063s-0.74358-0.35734-1.5277-0.0602c-0.68012 0.25771-0.92269 0.90912-0.92269 0.90912s-0.081572 0.14469-0.107 0.42209c-0.082574 0.90066 0.20794 1.4686 0.20794 1.4686l0.41135 0.63261z" stroke-width="0"/>
  </g>
  <g stroke="#000" stroke-width=".1">
   <path d="m3.6067 278.1s0.6382 0.45271 0.858 0.67729c0.21522 0.2199 0.44707 0.65616 0.44707 0.65616l0.56742-0.48231s-0.26736-0.50647-1.0695-0.79695c-0.18609-0.0674-0.80297-0.0542-0.80297-0.0542z" fill="#fff"/>
   <path d="m11.367 290.5 1.601-1.5843 2.213 3.068s0.06081 0.062 0.07082 0.16245c0.01162 0.11659-0.12111 0.20638-0.12111 0.20638l-1.0646 0.88015s-0.06968 0.0802-0.18939 0.0491c-0.0582-0.0151-0.18781-0.14133-0.18781-0.14133z"/>
   <path d="m20.6 296s-0.93703 2e-3 -1.3856-0.1683c-0.283-0.10767-0.37466-0.22567-0.37466-0.22567s-0.45768-0.58144-0.61527-0.89521c-0.15535-0.30932-0.60018-1.2926-0.60018-1.2926s-0.08433-0.24435-0.3861-0.46229c-0.30177-0.21794-1.0473-0.14544-1.0473-0.14544-0.40847-9e-3 -0.8542 0.22415-0.95377 0.26025-0.04897 0.0178-0.2924 0.14539-0.48455 0.3131-0.19848 0.17324-0.34504 0.38643-0.34504 0.38643s-0.19373 0.35924-0.21722 0.54453c-0.0291 0.53381 0.13696 0.99638 0.5834 1.2713 0.27363 0.15834 0.91003 0.31329 0.91003 0.31329s1.2841 0.16492 1.8545 0.17219c1.0346 0.0132 2.6636-0.0386 2.6636-0.0386z"/>
  </g>
 </g>
</svg>
