<svg xmlns:dc="http://purl.org/dc/elements/1.1/" xmlns:cc="http://creativecommons.org/ns#" xmlns:rdf="http://www.w3.org/1999/02/22-rdf-syntax-ns#" xmlns:svg="http://www.w3.org/2000/svg" xmlns="http://www.w3.org/2000/svg" xmlns:sodipodi="http://sodipodi.sourceforge.net/DTD/sodipodi-0.dtd" xmlns:inkscape="http://www.inkscape.org/namespaces/inkscape" width="22" height="20" version="1.1" viewBox="0 0 5.8208332 5.2916668" id="svg4491" sodipodi:docname="icono google plus.svg" inkscape:version="0.92.1 r15371">
    <defs id="defs4495"/>
    <sodipodi:namedview pagecolor="#ffffff" bordercolor="#666666" borderopacity="1" objecttolerance="10" gridtolerance="10" guidetolerance="10" inkscape:pageopacity="0" inkscape:pageshadow="2" inkscape:window-width="1440" inkscape:window-height="837" id="namedview4493" showgrid="false" inkscape:zoom="15.95" inkscape:cx="12.274937" inkscape:cy="13.340873" inkscape:window-x="-8" inkscape:window-y="-8" inkscape:window-maximized="1" inkscape:current-layer="svg4491" showguides="true" inkscape:guide-bbox="true"/>
    <metadata id="metadata4485">
        <rdf:RDF>
            <cc:Work rdf:about="">
                <dc:format>image/svg+xml</dc:format>
                <dc:type rdf:resource="http://purl.org/dc/dcmitype/StillImage"/>
                <dc:title/>
            </cc:Work>
        </rdf:RDF>
    </metadata>
    <path d="M 3.10557,1.6730664 3.6861534,1.092484 C 3.1054588,0.58955979 1.9043318,0.15944665 0.78764266,1.0847387 -0.52073508,2.1913916 0.06195946,4.4435832 1.5787281,4.8466626 2.1159445,5.0455282 3.2116356,4.9243633 3.8275498,4.2440804 4.3204737,3.6878655 4.3978007,3.0774322 4.3095114,2.4454083 H 2.2109742 V 3.1865348 H 3.4863175 C 2.9986525,4.0590258 2.3173731,4.1102813 1.8028955,3.9831432 1.1819078,3.8296701 0.77964329,3.0394033 0.91555844,2.3744929 1.0699573,1.900975 1.3916317,1.5625568 1.9138867,1.376164 2.3569628,1.2460902 2.6899294,1.426895 3.0626037,1.6486678 Z" id="path4487" inkscape:connector-curvature="0" style="fill:#ffffff;stroke:#000000;stroke-width:0.05697698" sodipodi:nodetypes="cccccccccccccc"/>
    <path d="M 4.9836889,2.8580118 V 3.3503366 H 5.3293518 V 2.8580118 H 5.8112049 V 2.5123488 H 5.31888 V 2.0339927 H 4.9801919 V 2.5263176 H 4.4983388 v 0.3282165 z" id="path4489" inkscape:connector-curvature="0" style="fill:#ffffff;stroke:#000000;stroke-width:0.02956101"/>
</svg>