<?xml version="1.0" encoding="UTF-8" standalone="no"?>
<!-- Created with Inkscape (http://www.inkscape.org/) -->

<svg
   xmlns:dc="http://purl.org/dc/elements/1.1/"
   xmlns:cc="http://creativecommons.org/ns#"
   xmlns:rdf="http://www.w3.org/1999/02/22-rdf-syntax-ns#"
   xmlns:svg="http://www.w3.org/2000/svg"
   xmlns="http://www.w3.org/2000/svg"
   xmlns:sodipodi="http://sodipodi.sourceforge.net/DTD/sodipodi-0.dtd"
   xmlns:inkscape="http://www.inkscape.org/namespaces/inkscape"
   width="80"
   height="80"
   viewBox="0 0 21.166666 21.166667"
   version="1.1"
   id="svg8"
   inkscape:version="0.92.1 r15371"
   sodipodi:docname="java.svg">
  <defs
     id="defs2" />
  <sodipodi:namedview
     id="base"
     pagecolor="#ffffff"
     bordercolor="#666666"
     borderopacity="1.0"
     inkscape:pageopacity="0.0"
     inkscape:pageshadow="2"
     inkscape:zoom="7.2355597"
     inkscape:cx="41.603992"
     inkscape:cy="37.168599"
     inkscape:document-units="mm"
     inkscape:current-layer="layer1"
     showgrid="false"
     units="px"
     inkscape:window-width="1440"
     inkscape:window-height="837"
     inkscape:window-x="-8"
     inkscape:window-y="-8"
     inkscape:window-maximized="1"
     showguides="false" />
  <metadata
     id="metadata5">
    <rdf:RDF>
      <cc:Work
         rdf:about="">
        <dc:format>image/svg+xml</dc:format>
        <dc:type
           rdf:resource="http://purl.org/dc/dcmitype/StillImage" />
        <dc:title></dc:title>
      </cc:Work>
    </rdf:RDF>
  </metadata>
  <g
     inkscape:label="Capa 1"
     inkscape:groupmode="layer"
     id="layer1"
     transform="translate(0,-275.83332)">
    <path
       style="fill:#000000;fill-opacity:1;stroke:#000000;stroke-width:0.1;stroke-linecap:butt;stroke-linejoin:miter;stroke-miterlimit:4;stroke-dasharray:none;stroke-opacity:1"
       d="m 11.968751,275.99968 c 0.305439,1.52372 0.0115,2.66318 -2.9356569,4.92652 -0.5537478,0.42387 -1.0716735,0.89514 -1.5012379,1.4432 -0.4366541,0.56926 -0.4948029,1.19643 -0.2600909,1.76569 0.4013999,1.2465 1.5151209,2.15705 2.5747207,3.14027 -0.675575,-1.11021 -1.6384634,-2.09627 -1.621506,-3.38276 0.1195942,-1.24667 0.7693035,-1.65871 2.956864,-3.62455 1.010432,-1.15376 1.884597,-2.44108 0.786907,-4.26837 z"
       id="path32"
       inkscape:connector-curvature="0"
       sodipodi:nodetypes="cccccccc" />
    <path
       style="fill:#000000;fill-opacity:1;stroke:#000000;stroke-width:0.1;stroke-linecap:butt;stroke-linejoin:miter;stroke-miterlimit:4;stroke-dasharray:none;stroke-opacity:1"
       d="m 14.498829,280.1836 c -1.428169,0.42039 -2.823795,0.92813 -3.967676,2.11161 -0.6581184,0.66884 -0.9054889,1.43897 -0.457292,2.3806 l 0.806985,1.23738 c 0.57414,0.98195 0.271277,1.58466 -0.268995,2.08471 2.414389,-1.64115 1.562684,-2.55588 0.664688,-3.86515 -0.117189,-0.17086 -0.214443,-0.29165 -0.220846,-0.46567 -0.02228,-1.7049 2.029622,-2.56337 3.443136,-3.48348 z"
       id="path839"
       inkscape:connector-curvature="0"
       sodipodi:nodetypes="cccccscc" />
    <path
       style="fill:#000000;fill-opacity:1;stroke:#000000;stroke-width:0.1;stroke-linecap:butt;stroke-linejoin:miter;stroke-miterlimit:4;stroke-dasharray:none;stroke-opacity:1"
       d="m 7.428186,287.36439 c -1.0578938,0.13565 -2.0280175,0.10204 -3.4054425,0.85393 -0.2316515,0.16656 -0.2799166,0.32905 0.030865,0.48356 1.9995622,0.75894 7.4742195,0.82982 10.1854625,-0.57615 -2.578476,0.45324 -5.1887658,0.63608 -7.8397196,0.47326 -1.105136,-0.10902 -1.3185507,-0.27799 -0.9876813,-0.48355 0.7714678,-0.42908 1.3522018,-0.51484 2.0165159,-0.75105 z"
       id="path841"
       inkscape:connector-curvature="0"
       sodipodi:nodetypes="ccccccc" />
    <path
       style="fill:#000000;fill-opacity:1;stroke:#000000;stroke-width:0.1;stroke-linecap:butt;stroke-linejoin:miter;stroke-miterlimit:4;stroke-dasharray:none;stroke-opacity:1"
       d="m 12.63284,290.26254 c -0.604472,0.14587 -7.6420817,1.02269 -6.0327607,-0.55133 -0.7778488,0.19342 -0.9827029,0.47636 -1.0866959,0.77507 -0.2444851,1.17104 6.0435656,1.07232 7.9664396,0.28765 -0.313536,-0.13283 -0.621183,-0.27017 -0.846983,-0.51139 z"
       id="path843"
       inkscape:connector-curvature="0"
       sodipodi:nodetypes="ccccc" />
    <path
       style="fill:#000000;fill-opacity:1;stroke:#000000;stroke-width:0.1;stroke-linecap:butt;stroke-linejoin:miter;stroke-miterlimit:4;stroke-dasharray:none;stroke-opacity:1"
       d="m 14.669241,287.56618 c 0.0856,-0.1379 0.175949,-0.275 0.621448,-0.35292 1.798519,-0.33707 2.607795,1.13582 1.86435,2.37838 -0.627574,0.94396 -1.842012,1.38494 -2.976813,1.64953 3.744719,-1.81286 2.517375,-4.34442 0.491015,-3.67499 z"
       id="path845"
       inkscape:connector-curvature="0"
       sodipodi:nodetypes="ccccc" />
    <path
       style="fill:#000000;fill-opacity:1;stroke:#000000;stroke-width:0.1;stroke-linecap:butt;stroke-linejoin:miter;stroke-miterlimit:4;stroke-dasharray:none;stroke-opacity:1"
       d="m 7.0754922,292.00033 c -1.1261174,1.09423 4.3024268,0.68373 4.8896828,0.41161 0.354688,0.19879 0.707137,0.39869 1.135486,0.56065 -1.143985,0.66186 -2.691371,0.81544 -4.3077474,0.70258 -0.8743997,-0.0519 -3.3141374,-0.65903 -2.5193583,-1.3129 0.2324394,-0.19039 0.5134532,-0.28364 0.8019369,-0.36194 z"
       id="path847"
       inkscape:connector-curvature="0"
       sodipodi:nodetypes="cccccc" />
    <path
       style="fill:#000000;fill-opacity:1;stroke:#000000;stroke-width:0.1;stroke-linecap:butt;stroke-linejoin:miter;stroke-miterlimit:4;stroke-dasharray:none;stroke-opacity:1"
       d="m 5.4597831,293.61551 c -0.8841675,0.079 -1.6291845,0.26063 -2.0072731,0.71258 -0.1318173,0.56123 2.9235713,0.6872 4.9479284,0.79287 1.9888446,-0.0303 3.9693246,-0.0874 5.9314926,-0.33119 1.056969,-0.21095 2.271752,-0.36653 1.856728,-1.09397 0.199355,0.08 0.406327,0.15328 0.371345,0.4416 -0.101092,0.38189 -1.276153,1.05044 -3.030982,1.17426 -3.093376,0.48327 -6.2782247,0.63391 -9.665021,0.0502 -4.06501073,-0.49457 0.2128291,-2.22613 1.5957821,-1.74635 z"
       id="path849"
       inkscape:connector-curvature="0"
       sodipodi:nodetypes="ccccccccc" />
    <path
       style="fill:#000000;fill-opacity:1;stroke:#000000;stroke-width:0.1;stroke-linecap:butt;stroke-linejoin:miter;stroke-miterlimit:4;stroke-dasharray:none;stroke-opacity:1"
       d="m 17.486472,294.75388 c -1.294909,1.0231 -3.489994,1.46917 -6.259362,1.5471 -1.9522395,0.10139 -4.1124868,-0.0399 -6.2877493,-0.19871 0.872409,0.27871 1.8748323,0.52742 3.7187142,0.58194 3.5649681,0.0888 5.1043911,-0.17157 6.5148461,-0.4542 1.33942,-0.31842 2.32917,-0.74367 2.313551,-1.47613 z"
       id="path851"
       inkscape:connector-curvature="0"
       sodipodi:nodetypes="cccccc" />
  </g>
</svg>
