<?xml version="1.0" encoding="UTF-8" standalone="no"?>
<!-- Created with Inkscape (http://www.inkscape.org/) -->

<svg
   xmlns:dc="http://purl.org/dc/elements/1.1/"
   xmlns:cc="http://creativecommons.org/ns#"
   xmlns:rdf="http://www.w3.org/1999/02/22-rdf-syntax-ns#"
   xmlns:svg="http://www.w3.org/2000/svg"
   xmlns="http://www.w3.org/2000/svg"
   xmlns:sodipodi="http://sodipodi.sourceforge.net/DTD/sodipodi-0.dtd"
   xmlns:inkscape="http://www.inkscape.org/namespaces/inkscape"
   width="80"
   height="80"
   viewBox="0 0 21.166666 21.166667"
   version="1.1"
   id="svg5108"
   inkscape:version="0.92.1 r15371"
   sodipodi:docname="sass.svg">
  <defs
     id="defs5102" />
  <sodipodi:namedview
     id="base"
     pagecolor="#ffffff"
     bordercolor="#666666"
     borderopacity="1.0"
     inkscape:pageopacity="0.0"
     inkscape:pageshadow="2"
     inkscape:zoom="7.1010161"
     inkscape:cx="57.875787"
     inkscape:cy="40.6217"
     inkscape:document-units="mm"
     inkscape:current-layer="layer1"
     showgrid="false"
     units="px"
     inkscape:window-width="1440"
     inkscape:window-height="837"
     inkscape:window-x="-8"
     inkscape:window-y="-8"
     inkscape:window-maximized="1" />
  <metadata
     id="metadata5105">
    <rdf:RDF>
      <cc:Work
         rdf:about="">
        <dc:format>image/svg+xml</dc:format>
        <dc:type
           rdf:resource="http://purl.org/dc/dcmitype/StillImage" />
        <dc:title></dc:title>
      </cc:Work>
    </rdf:RDF>
  </metadata>
  <g
     inkscape:label="Capa 1"
     inkscape:groupmode="layer"
     id="layer1"
     transform="translate(0,-275.83332)">
    <path
       style="fill:#000000;stroke:#000000;stroke-width:0.098761;stroke-linecap:butt;stroke-linejoin:miter;stroke-miterlimit:4;stroke-dasharray:none;stroke-opacity:1"
       d="m 9.5035756,278.49913 c -0.8190705,0.004 -1.6568057,0.13584 -2.3782294,0.35761 -2.3303889,0.79747 -4.3322191,1.92332 -5.805067,3.57832 -0.69064045,0.95892 -1.51204429,1.87508 -0.82784726,3.28436 0.71111166,1.49806 2.42435236,2.30532 3.78106496,3.35814 -1.7006896,1.02587 -4.62424225,2.59972 -2.818059,4.65677 1.6238952,1.06686 5.4219675,-1.48121 3.9404398,-4.51881 l 1.1775702,-0.67185 c -0.8237,2.66567 0.9028585,5.50317 2.204213,1.61008 0.00163,0.57976 -0.063829,1.42866 0.3852026,1.54983 1.0372565,0.32343 2.2085215,-3.09335 2.8011645,-4.43828 0.0109,0.46644 0.325497,1.12692 0.635246,1.78465 -0.398927,0.5837 -0.867548,1.12578 -1.325119,1.67428 -1.089604,1.6394 3.749843,0.52411 2.180561,-1.9322 l 1.324555,-2.13438 0.570482,1.65625 c -0.484017,0.54959 -1.212794,0.90956 -1.205165,1.83985 0.0025,0.3443 0.004,0.68881 0.616098,0.64369 0.636654,-0.0482 0.994578,-0.41251 1.380309,-0.74506 0.566572,-0.54425 0.526942,-1.12432 0.211748,-1.72045 2.000554,-1.01526 5.633199,0.65476 3.385162,2.5117 -0.06049,0.0801 0.09119,0.16879 0.257366,0.0738 2.666799,-1.59003 -0.848748,-4.75578 -3.836255,-3.10978 -0.241829,-0.44849 -0.434098,-0.86775 -0.469114,-1.19559 -0.08954,-0.55489 0.0056,-0.96888 0.175143,-1.32511 0.110519,-0.23235 0.157667,-0.42808 -0.202738,-0.38634 -0.335189,0.0536 -0.725198,0.0826 -0.974832,0.17515 -0.133996,0.0285 -0.210982,0.4664 -0.285522,0.91964 -0.480806,0.90053 -1.141615,2.29913 -1.223186,2.09778 l -0.230333,-0.59808 c -0.145054,-0.55737 -0.106319,-1.07522 0.147548,-1.54588 0.12408,-0.46007 -0.05026,-0.414 -0.202737,-0.41392 -0.480707,0.004 -1.078993,-0.0628 -1.067191,0.35874 -0.0056,0.15639 -0.02827,0.31271 -0.08279,0.4691 -0.674955,1.41001 -2.0519057,4.6043 -2.014428,4.20401 -0.125906,-1.27255 0.93055,-2.90234 0.312555,-3.03094 -0.1656751,-0.0561 -0.3390226,-0.0204 -0.4691133,0.13346 -0.025327,-0.54236 0.2008133,-1.21062 -0.607088,-1.36171 -0.6359967,0.0407 -1.2911452,0.4904 -1.839848,1.21417 l -2.097776,1.15955 c -0.9482543,-0.8789 -2.4388864,-2.02911 -2.8332646,-2.63109 -1.0184188,-1.50791 -0.073122,-3.0797 2.6862794,-4.71028 1.0866688,-0.66366 3.6723528,-2.03168 6.1086115,-1.4721 0.981165,0.3217 1.400976,0.94518 1.057616,1.90461 -0.30643,1.71938 -4.8465057,4.45841 -6.9820737,2.32699 -0.097874,0.18597 -0.036551,0.38819 0.1103797,0.59864 0.7442757,1.02192 1.8040155,0.92188 2.8518493,0.86444 1.9295775,-0.28736 3.4509417,-0.83952 4.6826867,-2.73189 1.538788,-3.22243 -0.748866,-4.34585 -3.2060788,-4.33184 z m -0.5383815,8.59102 c 0.1670247,0.0185 0.1489059,0.23899 0.144732,0.33565 0.00741,0.209 -1.1722661,3.4342 -1.4878718,3.47245 -0.844815,-0.89669 0.4624355,-3.75949 1.3431398,-3.8081 z m 6.6419239,1.63712 c 0.28287,0.5625 -0.144844,1.18694 -0.772657,1.46309 -0.02173,-0.64745 0.318094,-1.1455 0.772657,-1.46309 z m -10.8645075,0.83798 c 0.1197981,0.27331 0.7359385,1.79418 -1.4535194,3.13681 -0.3301457,0.22623 -1.2994642,0.11872 -1.1589859,-0.57105 0.3429644,-1.21101 1.4319789,-1.88463 2.6125053,-2.56576 z m 8.1506345,0.0315 c 0.129784,0.49251 -0.493946,1.20598 -1.067191,1.27387 0.408966,-0.40112 0.734897,-0.8618 1.067191,-1.27387 z"
       id="path5664"
       inkscape:connector-curvature="0" />
  </g>
</svg>
